<svg width="720" height="753"><line class="link" x1="125.49680961775897" y1="138.59536748449136" x2="216.7674790230419" y2="150.10582565383712"></line><line class="link" x1="125.49680961775897" y1="138.59536748449136" x2="252.98619200238068" y2="222.4343706885437"></line><line class="link" x1="216.7674790230419" y1="150.10582565383712" x2="320.2976768451223" y2="135.4761165764063"></line><line class="link" x1="216.7674790230419" y1="150.10582565383712" x2="263.864441910001" y2="199.34890501068344"></line><line class="link" x1="216.7674790230419" y1="150.10582565383712" x2="265.59428758710266" y2="293.3734542386369"></line><line class="link" x1="320.2976768451223" y1="135.4761165764063" x2="263.864441910001" y2="199.34890501068344"></line><line class="link" x1="263.864441910001" y1="199.34890501068344" x2="252.98619200238068" y2="222.4343706885437"></line><line class="link" x1="263.864441910001" y1="199.34890501068344" x2="296.86484087219924" y2="264.75171015139824"></line><line class="link" x1="263.864441910001" y1="199.34890501068344" x2="352.7790536479116" y2="333.53817659498975"></line><line class="link" x1="252.98619200238068" y1="222.4343706885437" x2="296.86484087219924" y2="264.75171015139824"></line><line class="link" x1="252.98619200238068" y1="222.4343706885437" x2="265.59428758710266" y2="293.3734542386369"></line><line class="link" x1="296.86484087219924" y1="264.75171015139824" x2="302.7123470971877" y2="312.22418582824105"></line><line class="link" x1="296.86484087219924" y1="264.75171015139824" x2="330.1482890638364" y2="324.0827768890091"></line><line class="link" x1="265.59428758710266" y1="293.3734542386369" x2="302.7123470971877" y2="312.22418582824105"></line><line class="link" x1="265.59428758710266" y1="293.3734542386369" x2="310.7733520964836" y2="375.75549188408104"></line><line class="link" x1="302.7123470971877" y1="312.22418582824105" x2="330.1482890638364" y2="324.0827768890091"></line><line class="link" x1="302.7123470971877" y1="312.22418582824105" x2="310.7733520964836" y2="375.75549188408104"></line><line class="link" x1="330.1482890638364" y1="324.0827768890091" x2="352.7790536479116" y2="333.53817659498975"></line><line class="link" x1="330.1482890638364" y1="324.0827768890091" x2="348.66852198640987" y2="362.69661059878973"></line><line class="link" x1="352.7790536479116" y1="333.53817659498975" x2="348.66852198640987" y2="362.69661059878973"></line><line class="link" x1="352.7790536479116" y1="333.53817659498975" x2="410.1832691446868" y2="389.01031328415775"></line><line class="link" x1="348.66852198640987" y1="362.69661059878973" x2="343.48743869521707" y2="414.6354184471824"></line><line class="link" x1="348.66852198640987" y1="362.69661059878973" x2="387.5634059966205" y2="423.07588860460066"></line><line class="link" x1="310.7733520964836" y1="375.75549188408104" x2="343.48743869521707" y2="414.6354184471824"></line><line class="link" x1="310.7733520964836" y1="375.75549188408104" x2="344.41238253805255" y2="562.3354696760725"></line><line class="link" x1="343.48743869521707" y1="414.6354184471824" x2="373.15468340084595" y2="445.69728663042986"></line><line class="link" x1="343.48743869521707" y1="414.6354184471824" x2="362.77087168988174" y2="534.8552726028098"></line><line class="link" x1="373.15468340084595" y1="445.69728663042986" x2="387.5634059966205" y2="423.07588860460066"></line><line class="link" x1="373.15468340084595" y1="445.69728663042986" x2="399.2284918654393" y2="475.13184292375155"></line><line class="link" x1="373.15468340084595" y1="445.69728663042986" x2="362.77087168988174" y2="534.8552726028098"></line><line class="link" x1="399.2284918654393" y1="475.13184292375155" x2="362.77087168988174" y2="534.8552726028098"></line><line class="link" x1="399.2284918654393" y1="475.13184292375155" x2="384.6648179206584" y2="560.0512983350076"></line><line class="link" x1="399.2284918654393" y1="475.13184292375155" x2="428.41972824009326" y2="550.6194880580443"></line><line class="link" x1="399.2284918654393" y1="475.13184292375155" x2="387.5634059966205" y2="423.07588860460066"></line><line class="link" x1="399.2284918654393" y1="475.13184292375155" x2="410.1832691446868" y2="389.01031328415775"></line><line class="link" x1="399.2284918654393" y1="475.13184292375155" x2="444.72992992754905" y2="349.3699573072972"></line><line class="link" x1="362.77087168988174" y1="534.8552726028098" x2="344.41238253805255" y2="562.3354696760725"></line><line class="link" x1="362.77087168988174" y1="534.8552726028098" x2="384.6648179206584" y2="560.0512983350076"></line><line class="link" x1="344.41238253805255" y1="562.3354696760725" x2="261.3155616404319" y2="613.0563191202237"></line><line class="link" x1="344.41238253805255" y1="562.3354696760725" x2="361.4980645164209" y2="586.1841048002107"></line><line class="link" x1="261.3155616404319" y1="613.0563191202237" x2="361.4980645164209" y2="586.1841048002107"></line><line class="link" x1="261.3155616404319" y1="613.0563191202237" x2="367.751720051249" y2="612.4700218334598"></line><line class="link" x1="361.4980645164209" y1="586.1841048002107" x2="390.16773190291343" y2="601.666018892782"></line><line class="link" x1="361.4980645164209" y1="586.1841048002107" x2="384.6648179206584" y2="560.0512983350076"></line><line class="link" x1="367.751720051249" y1="612.4700218334598" x2="390.16773190291343" y2="601.666018892782"></line><line class="link" x1="390.16773190291343" y1="601.666018892782" x2="414.29104640242605" y2="580.4414801606753"></line><line class="link" x1="390.16773190291343" y1="601.666018892782" x2="451.7632455399426" y2="611.7266382993157"></line><line class="link" x1="384.6648179206584" y1="560.0512983350076" x2="414.29104640242605" y2="580.4414801606753"></line><line class="link" x1="414.29104640242605" y1="580.4414801606753" x2="442.91793083906714" y2="583.7875232805362"></line><line class="link" x1="414.29104640242605" y1="580.4414801606753" x2="428.41972824009326" y2="550.6194880580443"></line><line class="link" x1="451.7632455399426" y1="611.7266382993157" x2="514.7490418243934" y2="603.2435647696602"></line><line class="link" x1="451.7632455399426" y1="611.7266382993157" x2="442.91793083906714" y2="583.7875232805362"></line><line class="link" x1="514.7490418243934" y1="603.2435647696602" x2="442.91793083906714" y2="583.7875232805362"></line><line class="link" x1="442.91793083906714" y1="583.7875232805362" x2="428.41972824009326" y2="550.6194880580443"></line><line class="link" x1="428.41972824009326" y1="550.6194880580443" x2="399.2284918654393" y2="475.13184292375155"></line><line class="link" x1="387.5634059966205" y1="423.07588860460066" x2="410.1832691446868" y2="389.01031328415775"></line><line class="link" x1="410.1832691446868" y1="389.01031328415775" x2="444.72992992754905" y2="349.3699573072972"></line><line class="link" x1="410.1832691446868" y1="389.01031328415775" x2="461.329116824822" y2="299.8857935364873"></line><line class="link" x1="444.72992992754905" y1="349.3699573072972" x2="461.329116824822" y2="299.8857935364873"></line><line class="link" x1="444.72992992754905" y1="349.3699573072972" x2="541.5972841251729" y2="213.93366070710306"></line><line class="link" x1="461.329116824822" y1="299.8857935364873" x2="541.5972841251729" y2="213.93366070710306"></line><line class="link" x1="461.329116824822" y1="299.8857935364873" x2="537.8965855745806" y2="196.0533523421634"></line><line class="link" x1="541.5972841251729" y1="213.93366070710306" x2="537.8965855745806" y2="196.0533523421634"></line><line class="link" x1="541.5972841251729" y1="213.93366070710306" x2="554.2551985161091" y2="180.1742723729634"></line><line class="link" x1="537.8965855745806" y1="196.0533523421634" x2="554.2551985161091" y2="180.1742723729634"></line><line class="link" x1="537.8965855745806" y1="196.0533523421634" x2="473.88000978014304" y2="137.0835816889292"></line><line class="link" x1="554.2551985161091" y1="180.1742723729634" x2="540.072027172248" y2="140.80201573619166"></line><line class="link" x1="554.2551985161091" y1="180.1742723729634" x2="617.6914082625864" y2="140.55766976489488"></line><line class="link" x1="473.88000978014304" y1="137.0835816889292" x2="540.072027172248" y2="140.80201573619166"></line><line class="link" x1="540.072027172248" y1="140.80201573619166" x2="617.6914082625864" y2="140.55766976489488"></line><g class="node" transform="translate(43.9610778043317,432.9792823845015)"><circle class="node" r="0"></circle><text style="text-anchor: middle;">0</text></g><g class="node fixed" transform="translate(125.49680961775897,138.59536748449136)"><circle class="node" r="10"></circle><text style="text-anchor: middle;">1</text></g><g class="node fixed" transform="translate(216.7674790230419,150.10582565383712)"><circle class="node" r="15"></circle><text style="text-anchor: middle;">2</text></g><g class="node fixed" transform="translate(320.2976768451223,135.4761165764063)"><circle class="node" r="20"></circle><text style="text-anchor: middle;">3</text></g><g class="node fixed" transform="translate(263.864441910001,199.34890501068344)"><circle class="node" r="10"></circle><text style="text-anchor: middle;">4</text></g><g class="node fixed" transform="translate(252.98619200238068,222.4343706885437)"><circle class="node" r="7"></circle><text style="text-anchor: middle;">5</text></g><g class="node fixed" transform="translate(296.86484087219924,264.75171015139824)"><circle class="node" r="20"></circle><text style="text-anchor: middle;">6</text></g><g class="node fixed" transform="translate(265.59428758710266,293.3734542386369)"><circle class="node" r="15"></circle><text style="text-anchor: middle;">7</text></g><g class="node fixed" transform="translate(302.7123470971877,312.22418582824105)"><circle class="node" r="7"></circle><text style="text-anchor: middle;">8</text></g><g class="node fixed" transform="translate(330.1482890638364,324.0827768890091)"><circle class="node" r="10"></circle><text style="text-anchor: middle;">9</text></g><g class="node fixed" transform="translate(352.7790536479116,333.53817659498975)"><circle class="node" r="8"></circle><text style="text-anchor: middle;">10</text></g><g class="node fixed" transform="translate(348.66852198640987,362.69661059878973)"><circle class="node" r="8"></circle><text style="text-anchor: middle;">11</text></g><g class="node fixed" transform="translate(310.7733520964836,375.75549188408104)"><circle class="node" r="20"></circle><text style="text-anchor: middle;">12</text></g><g class="node fixed" transform="translate(343.48743869521707,414.6354184471824)"><circle class="node" r="15"></circle><text style="text-anchor: middle;">13</text></g><g class="node fixed" transform="translate(373.15468340084595,445.69728663042986)"><circle class="node" r="10"></circle><text style="text-anchor: middle;">14</text></g><g class="node fixed" transform="translate(399.2284918654393,475.13184292375155)"><circle class="node" r="20"></circle><text style="text-anchor: middle;">15</text></g><g class="node fixed" transform="translate(362.77087168988174,534.8552726028098)"><circle class="node" r="15"></circle><text style="text-anchor: middle;">16</text></g><g class="node fixed" transform="translate(344.41238253805255,562.3354696760725)"><circle class="node" r="10"></circle><text style="text-anchor: middle;">17</text></g><g class="node fixed" transform="translate(261.3155616404319,613.0563191202237)"><circle class="node" r="10"></circle><text style="text-anchor: middle;">18</text></g><g class="node fixed" transform="translate(361.4980645164209,586.1841048002107)"><circle class="node" r="10"></circle><text style="text-anchor: middle;">19</text></g><g class="node fixed" transform="translate(367.751720051249,612.4700218334598)"><circle class="node" r="10"></circle><text style="text-anchor: middle;">20</text></g><g class="node fixed" transform="translate(390.16773190291343,601.666018892782)"><circle class="node" r="10"></circle><text style="text-anchor: middle;">21</text></g><g class="node fixed" transform="translate(384.6648179206584,560.0512983350076)"><circle class="node" r="10"></circle><text style="text-anchor: middle;">22</text></g><g class="node fixed" transform="translate(414.29104640242605,580.4414801606753)"><circle class="node" r="15"></circle><text style="text-anchor: middle;">23</text></g><g class="node fixed" transform="translate(451.7632455399426,611.7266382993157)"><circle class="node" r="10"></circle><text style="text-anchor: middle;">24</text></g><g class="node fixed" transform="translate(514.7490418243934,603.2435647696602)"><circle class="node" r="10"></circle><text style="text-anchor: middle;">25</text></g><g class="node fixed" transform="translate(442.91793083906714,583.7875232805362)"><circle class="node" r="10"></circle><text style="text-anchor: middle;">26</text></g><g class="node fixed" transform="translate(428.41972824009326,550.6194880580443)"><circle class="node" r="10"></circle><text style="text-anchor: middle;">27</text></g><g class="node fixed" transform="translate(387.5634059966205,423.07588860460066)"><circle class="node" r="10"></circle><text style="text-anchor: middle;">28</text></g><g class="node fixed" transform="translate(410.1832691446868,389.01031328415775)"><circle class="node" r="10"></circle><text style="text-anchor: middle;">29</text></g><g class="node fixed" transform="translate(444.72992992754905,349.3699573072972)"><circle class="node" r="8"></circle><text style="text-anchor: middle;">30</text></g><g class="node fixed" transform="translate(461.329116824822,299.8857935364873)"><circle class="node" r="8"></circle><text style="text-anchor: middle;">31</text></g><g class="node fixed" transform="translate(541.5972841251729,213.93366070710306)"><circle class="node" r="5"></circle><text style="text-anchor: middle;">32</text></g><g class="node fixed" transform="translate(537.8965855745806,196.0533523421634)"><circle class="node" r="5"></circle><text style="text-anchor: middle;">33</text></g><g class="node fixed" transform="translate(554.2551985161091,180.1742723729634)"><circle class="node" r="10"></circle><text style="text-anchor: middle;">34</text></g><g class="node fixed" transform="translate(473.88000978014304,137.0835816889292)"><circle class="node" r="10"></circle><text style="text-anchor: middle;">35</text></g><g class="node fixed" transform="translate(540.072027172248,140.80201573619166)"><circle class="node" r="15"></circle><text style="text-anchor: middle;">36</text></g><g class="node fixed" transform="translate(617.6914082625864,140.55766976489488)"><circle class="node" r="10"></circle><text style="text-anchor: middle;">37</text></g></svg>